<?xml version="1.0" encoding="UTF-8"?>
<svg width="800" height="800" viewBox="0 0 800 800" xmlns="http://www.w3.org/2000/svg">
  <!-- Background -->
  <rect width="800" height="800" fill="#f8f9fa" />
  
  <!-- Title -->
  <text x="400" y="40" font-family="Arial" font-size="24" font-weight="bold" text-anchor="middle" fill="#2c3e50">SmartPark System Overview</text>
  
  <!-- Driver Section -->
  <rect x="50" y="80" width="700" height="180" rx="20" ry="20" fill="#fff" stroke="#3498db" stroke-width="2" />
  <text x="400" y="110" font-family="Arial" font-size="20" font-weight="bold" text-anchor="middle" fill="#3498db">User Experience</text>
  
  <!-- Driver Flow -->
  <!-- Car Icon -->
  <circle cx="120" cy="170" r="30" fill="#ecf0f1" stroke="#bdc3c7" stroke-width="1" />
  <path d="M100 175 Q120 155 140 175 L140 185 Q120 195 100 185 Z" fill="#3498db" />
  <circle cx="110" cy="185" r="5" fill="#2c3e50" />
  <circle cx="130" cy="185" r="5" fill="#2c3e50" />
  <text x="120" y="220" font-family="Arial" font-size="14" text-anchor="middle" fill="#2c3e50">Park Vehicle</text>
  
  <!-- App Icon -->
  <circle cx="240" cy="170" r="30" fill="#ecf0f1" stroke="#bdc3c7" stroke-width="1" />
  <rect x="225" y="155" width="30" height="30" rx="5" ry="5" fill="#3498db" />
  <rect x="230" y="160" width="20" height="10" fill="#fff" />
  <rect x="230" y="175" width="20" height="5" fill="#fff" />
  <text x="240" y="220" font-family="Arial" font-size="14" text-anchor="middle" fill="#2c3e50">Pay via App</text>
  
  <!-- Server Processing -->
  <circle cx="360" cy="170" r="30" fill="#ecf0f1" stroke="#bdc3c7" stroke-width="1" />
  <rect x="345" y="155" width="30" height="30" fill="#3498db" />
  <line x1="350" y1="160" x2="370" y2="160" stroke="#fff" stroke-width="2" />
  <line x1="350" y1="165" x2="370" y2="165" stroke="#fff" stroke-width="2" />
  <line x1="350" y1="170" x2="370" y2="170" stroke="#fff" stroke-width="2" />
  <line x1="350" y1="175" x2="370" y2="175" stroke="#fff" stroke-width="2" />
  <line x1="350" y1="180" x2="370" y2="180" stroke="#fff" stroke-width="2" />
  <text x="360" y="220" font-family="Arial" font-size="14" text-anchor="middle" fill="#2c3e50">Payment Processed</text>
  
  <!-- Notification Icon -->
  <circle cx="480" cy="170" r="30" fill="#ecf0f1" stroke="#bdc3c7" stroke-width="1" />
  <path d="M480 150 L490 170 L480 165 L470 170 Z" fill="#3498db" />
  <rect x="475" y="170" width="10" height="15" fill="#3498db" />
  <text x="480" y="220" font-family="Arial" font-size="14" text-anchor="middle" fill="#2c3e50">Receive Confirmation</text>
  
  <!-- Timer Icon -->
  <circle cx="600" cy="170" r="30" fill="#ecf0f1" stroke="#bdc3c7" stroke-width="1" />
  <circle cx="600" cy="170" r="25" fill="none" stroke="#3498db" stroke-width="3" />
  <line x1="600" y1="170" x2="600" y2="155" stroke="#3498db" stroke-width="2" />
  <line x1="600" y1="170" x2="615" y2="170" stroke="#3498db" stroke-width="2" />
  <text x="600" y="220" font-family="Arial" font-size="14" text-anchor="middle" fill="#2c3e50">Get Reminders</text>
  
  <!-- Flow Arrows -->
  <line x1="150" y1="170" x2="210" y2="170" stroke="#3498db" stroke-width="2" />
  <polygon points="210,170 200,165 200,175" fill="#3498db" />
  
  <line x1="270" y1="170" x2="330" y2="170" stroke="#3498db" stroke-width="2" />
  <polygon points="330,170 320,165 320,175" fill="#3498db" />
  
  <line x1="390" y1="170" x2="450" y2="170" stroke="#3498db" stroke-width="2" />
  <polygon points="450,170 440,165 440,175" fill="#3498db" />
  
  <line x1="510" y1="170" x2="570" y2="170" stroke="#3498db" stroke-width="2" />
  <polygon points="570,170 560,165 560,175" fill="#3498db" />
  
  <!-- Operator Section -->
  <rect x="50" y="280" width="700" height="180" rx="20" ry="20" fill="#fff" stroke="#2ecc71" stroke-width="2" />
  <text x="400" y="310" font-family="Arial" font-size="20" font-weight="bold" text-anchor="middle" fill="#2ecc71">Parking Operator Experience</text>
  
  <!-- Operator Flow -->
  <!-- Operator Icon -->
  <circle cx="120" cy="370" r="30" fill="#ecf0f1" stroke="#bdc3c7" stroke-width="1" />
  <circle cx="120" cy="355" r="10" fill="#2ecc71" />
  <path d="M105 375 Q120 395 135 375" fill="none" stroke="#2ecc71" stroke-width="2" />
  <rect x="110" y="365" width="20" height="20" fill="#2ecc71" />
  <text x="120" y="420" font-family="Arial" font-size="14" text-anchor="middle" fill="#2c3e50">Operator Scans Plate</text>
  
  <!-- Server Check -->
  <circle cx="240" cy="370" r="30" fill="#ecf0f1" stroke="#bdc3c7" stroke-width="1" />
  <rect x="225" y="355" width="30" height="30" fill="#2ecc71" />
  <text x="240" y="370" font-family="Arial" font-size="20" font-weight="bold" text-anchor="middle" fill="#fff">?</text>
  <text x="240" y="420" font-family="Arial" font-size="14" text-anchor="middle" fill="#2c3e50">Check Payment Status</text>
  
  <!-- Decision Icon -->
  <circle cx="360" cy="370" r="30" fill="#ecf0f1" stroke="#bdc3c7" stroke-width="1" />
  <path d="M345 370 L375 370 M360 355 L360 385" stroke="#e74c3c" stroke-width="3" />
  <text x="360" y="420" font-family="Arial" font-size="14" text-anchor="middle" fill="#2c3e50">Unpaid Parking?</text>
  
  <!-- Penalty Icon -->
  <circle cx="480" cy="370" r="30" fill="#ecf0f1" stroke="#bdc3c7" stroke-width="1" />
  <rect x="465" y="355" width="30" height="30" rx="5" ry="5" fill="#e74c3c" />
  <text x="480" y="375" font-family="Arial" font-size="16" font-weight="bold" text-anchor="middle" fill="#fff">$</text>
  <text x="480" y="420" font-family="Arial" font-size="14" text-anchor="middle" fill="#2c3e50">Issue Penalty</text>
  
  <!-- Notification Icon -->
  <circle cx="600" cy="370" r="30" fill="#ecf0f1" stroke="#bdc3c7" stroke-width="1" />
  <path d="M600 350 L610 370 L600 365 L590 370 Z" fill="#e74c3c" />
  <rect x="595" y="370" width="10" height="15" fill="#e74c3c" />
  <text x="600" y="420" font-family="Arial" font-size="14" text-anchor="middle" fill="#2c3e50">Send Notification</text>
  
  <!-- Flow Arrows -->
  <line x1="150" y1="370" x2="210" y2="370" stroke="#2ecc71" stroke-width="2" />
  <polygon points="210,370 200,365 200,375" fill="#2ecc71" />
  
  <line x1="270" y1="370" x2="330" y2="370" stroke="#2ecc71" stroke-width="2" />
  <polygon points="330,370 320,365 320,375" fill="#2ecc71" />
  
  <line x1="390" y1="370" x2="450" y2="370" stroke="#e74c3c" stroke-width="2" />
  <polygon points="450,370 440,365 440,375" fill="#e74c3c" />
  <text x="420" y="360" font-family="Arial" font-size="12" text-anchor="middle" fill="#e74c3c">Yes</text>
  
  <line x1="510" y1="370" x2="570" y2="370" stroke="#e74c3c" stroke-width="2" />
  <polygon points="570,370 560,365 560,375" fill="#e74c3c" />
  
  <!-- Server Side Section -->
  <rect x="50" y="480" width="700" height="220" rx="20" ry="20" fill="#fff" stroke="#9b59b6" stroke-width="2" />
  <text x="400" y="510" font-family="Arial" font-size="20" font-weight="bold" text-anchor="middle" fill="#9b59b6">Server Side Functionality</text>
  
  <!-- Database Icon -->
  <circle cx="120" cy="570" r="40" fill="#ecf0f1" stroke="#bdc3c7" stroke-width="1" />
  <rect x="100" y="550" width="40" height="50" rx="5" ry="5" fill="#9b59b6" />
  <line x1="110" y1="560" x2="130" y2="560" stroke="#fff" stroke-width="2" />
  <line x1="110" y1="570" x2="130" y2="570" stroke="#fff" stroke-width="2" />
  <line x1="110" y1="580" x2="130" y2="580" stroke="#fff" stroke-width="2" />
  <line x1="110" y1="590" x2="130" y2="590" stroke="#fff" stroke-width="2" />
  <text x="120" y="630" font-family="Arial" font-size="14" text-anchor="middle" fill="#2c3e50">Database</text>
  <text x="120" y="650" font-family="Arial" font-size="12" text-anchor="middle" fill="#666">User, Vehicle &</text>
  <text x="120" y="665" font-family="Arial" font-size="12" text-anchor="middle" fill="#666">Payment Records</text>
  
  <!-- API Services Icon -->
  <circle cx="280" cy="570" r="40" fill="#ecf0f1" stroke="#bdc3c7" stroke-width="1" />
  <rect x="260" y="550" width="40" height="40" rx="5" ry="5" fill="#9b59b6" />
  <text x="280" y="575" font-family="Arial" font-size="16" font-weight="bold" text-anchor="middle" fill="#fff">API</text>
  <text x="280" y="630" font-family="Arial" font-size="14" text-anchor="middle" fill="#2c3e50">API Services</text>
  <text x="280" y="650" font-family="Arial" font-size="12" text-anchor="middle" fill="#666">Authentication &</text>
  <text x="280" y="665" font-family="Arial" font-size="12" text-anchor="middle" fill="#666">Data Processing</text>
  
  <!-- Payment Processing Icon -->
  <circle cx="440" cy="570" r="40" fill="#ecf0f1" stroke="#bdc3c7" stroke-width="1" />
  <rect x="420" y="550" width="40" height="40" rx="5" ry="5" fill="#9b59b6" />
  <text x="440" y="575" font-family="Arial" font-size="20" font-weight="bold" text-anchor="middle" fill="#fff">$</text>
  <text x="440" y="630" font-family="Arial" font-size="14" text-anchor="middle" fill="#2c3e50">Payment Gateway</text>
  <text x="440" y="650" font-family="Arial" font-size="12" text-anchor="middle" fill="#666">Secure Transaction</text>
  <text x="440" y="665" font-family="Arial" font-size="12" text-anchor="middle" fill="#666">Processing</text>
  
  <!-- Analytics Icon -->
  <circle cx="600" cy="570" r="40" fill="#ecf0f1" stroke="#bdc3c7" stroke-width="1" />
  <rect x="580" y="550" width="40" height="40" rx="5" ry="5" fill="#9b59b6" />
  <path d="M585 580 L590 570 L595 575 L600 560 L605 565 L610 555 L615 580 Z" fill="none" stroke="#fff" stroke-width="2" />
  <text x="600" y="630" font-family="Arial" font-size="14" text-anchor="middle" fill="#2c3e50">Data Analytics</text>
  <text x="600" y="650" font-family="Arial" font-size="12" text-anchor="middle" fill="#666">Usage Patterns &</text>
  <text x="600" y="665" font-family="Arial" font-size="12" text-anchor="middle" fill="#666">Revenue Reports</text>
  
  <!-- Connections to Server -->
  <line x1="360" y1="250" x2="360" y2="280" stroke="#9b59b6" stroke-width="2" stroke-dasharray="5,5" />
  <line x1="360" y1="460" x2="360" y2="480" stroke="#9b59b6" stroke-width="2" stroke-dasharray="5,5" />
  
  <!-- Server Interconnections -->
  <line x1="160" y1="570" x2="240" y2="570" stroke="#9b59b6" stroke-width="2" />
  <polygon points="240,570 230,565 230,575" fill="#9b59b6" />
  
  <line x1="320" y1="570" x2="400" y2="570" stroke="#9b59b6" stroke-width="2" />
  <polygon points="400,570 390,565 390,575" fill="#9b59b6" />
  
  <line x1="480" y1="570" x2="560" y2="570" stroke="#9b59b6" stroke-width="2" />
  <polygon points="560,570 550,565 550,575" fill="#9b59b6" />
  
  <!-- Legend -->
  <rect x="50" y="730" width="15" height="15" fill="#3498db" />
  <text x="75" y="743" font-family="Arial" font-size="12" fill="#2c3e50">User App</text>
  
  <rect x="200" y="730" width="15" height="15" fill="#2ecc71" />
  <text x="225" y="743" font-family="Arial" font-size="12" fill="#2c3e50">Operator App</text>
  
  <rect x="350" y="730" width="15" height="15" fill="#9b59b6" />
  <text x="375" y="743" font-family="Arial" font-size="12" fill="#2c3e50">Server Side Systems</text>
  
  <rect x="500" y="730" width="15" height="15" fill="#e74c3c" />
  <text x="525" y="743" font-family="Arial" font-size="12" fill="#2c3e50">Penalty Process</text>
</svg>
